# xmcd
#
# Track frame offsets:
#	157
#	50322
#	91939
#	132942
#	174164
#	227506
#	271964
#	312493
#
# Disc length: 4653 seconds
#
# Revision: 1
# Processed by: cddbd v1.5.2PL0 Copyright (c) Steve Scherf et al.
# Submitted via: audiograbber 1.83.01
#
DISCID=5e122b08
DTITLE=Perfect Stranger - Leap of Faith - CD One
DYEAR=1900
DGENRE=
TTITLE0=Monolith
TTITLE1=Perfect Static
TTITLE2=Time Warp
TTITLE3=Leap of faith
TTITLE4=Already Happened
TTITLE5=Our Time
TTITLE6=That's When It's Callin' Me
TTITLE7=Carnalisimo
EXTD=
EXTT0=
EXTT1=
EXTT2=
EXTT3=
EXTT4=
EXTT5=
EXTT6=
EXTT7=
PLAYORDER=
